%TF.GenerationSoftware,KiCad,Pcbnew,(6.0.8)*%
%TF.CreationDate,2023-01-13T13:27:25+01:00*%
%TF.ProjectId,NB-IoT_PCB_rev_1_1,4e422d49-6f54-45f5-9043-425f7265765f,rev?*%
%TF.SameCoordinates,Original*%
%TF.FileFunction,Paste,Top*%
%TF.FilePolarity,Positive*%
%FSLAX46Y46*%
G04 Gerber Fmt 4.6, Leading zero omitted, Abs format (unit mm)*
G04 Created by KiCad (PCBNEW (6.0.8)) date 2023-01-13 13:27:25*
%MOMM*%
%LPD*%
G01*
G04 APERTURE LIST*
G04 Aperture macros list*
%AMRoundRect*
0 Rectangle with rounded corners*
0 $1 Rounding radius*
0 $2 $3 $4 $5 $6 $7 $8 $9 X,Y pos of 4 corners*
0 Add a 4 corners polygon primitive as box body*
4,1,4,$2,$3,$4,$5,$6,$7,$8,$9,$2,$3,0*
0 Add four circle primitives for the rounded corners*
1,1,$1+$1,$2,$3*
1,1,$1+$1,$4,$5*
1,1,$1+$1,$6,$7*
1,1,$1+$1,$8,$9*
0 Add four rect primitives between the rounded corners*
20,1,$1+$1,$2,$3,$4,$5,0*
20,1,$1+$1,$4,$5,$6,$7,0*
20,1,$1+$1,$6,$7,$8,$9,0*
20,1,$1+$1,$8,$9,$2,$3,0*%
G04 Aperture macros list end*
%ADD10R,1.550000X1.200000*%
%ADD11R,1.550000X1.500000*%
%ADD12R,1.350000X0.400000*%
%ADD13O,0.950000X1.250000*%
%ADD14O,1.550000X0.890000*%
%ADD15RoundRect,0.250000X-0.450000X0.325000X-0.450000X-0.325000X0.450000X-0.325000X0.450000X0.325000X0*%
%ADD16RoundRect,0.250000X0.325000X0.450000X-0.325000X0.450000X-0.325000X-0.450000X0.325000X-0.450000X0*%
%ADD17RoundRect,0.150000X-0.587500X-0.150000X0.587500X-0.150000X0.587500X0.150000X-0.587500X0.150000X0*%
%ADD18RoundRect,0.237500X-0.237500X0.250000X-0.237500X-0.250000X0.237500X-0.250000X0.237500X0.250000X0*%
%ADD19RoundRect,0.237500X-0.237500X0.300000X-0.237500X-0.300000X0.237500X-0.300000X0.237500X0.300000X0*%
%ADD20RoundRect,0.237500X-0.250000X-0.237500X0.250000X-0.237500X0.250000X0.237500X-0.250000X0.237500X0*%
%ADD21RoundRect,0.062500X-0.062500X-0.337500X0.062500X-0.337500X0.062500X0.337500X-0.062500X0.337500X0*%
%ADD22RoundRect,0.062500X-0.337500X-0.062500X0.337500X-0.062500X0.337500X0.062500X-0.337500X0.062500X0*%
%ADD23RoundRect,0.225000X-0.225000X-0.225000X0.225000X-0.225000X0.225000X0.225000X-0.225000X0.225000X0*%
%ADD24RoundRect,0.237500X0.250000X0.237500X-0.250000X0.237500X-0.250000X-0.237500X0.250000X-0.237500X0*%
%ADD25RoundRect,0.237500X0.237500X-0.300000X0.237500X0.300000X-0.237500X0.300000X-0.237500X-0.300000X0*%
%ADD26RoundRect,0.250000X0.450000X-0.325000X0.450000X0.325000X-0.450000X0.325000X-0.450000X-0.325000X0*%
%ADD27R,0.730000X1.210000*%
%ADD28R,1.500000X0.900000*%
%ADD29R,0.700000X0.700000*%
%ADD30RoundRect,0.237500X0.300000X0.237500X-0.300000X0.237500X-0.300000X-0.237500X0.300000X-0.237500X0*%
%ADD31R,1.000000X1.700000*%
%ADD32R,0.600000X1.700000*%
%ADD33RoundRect,0.237500X0.237500X-0.250000X0.237500X0.250000X-0.237500X0.250000X-0.237500X-0.250000X0*%
G04 APERTURE END LIST*
D10*
%TO.C,J2*%
X100452400Y-151363000D03*
D11*
X100452400Y-149463000D03*
D10*
X100452400Y-145563000D03*
D11*
X100452400Y-147463000D03*
D12*
X103152400Y-149763000D03*
X103152400Y-149113000D03*
X103152400Y-148463000D03*
X103152400Y-147813000D03*
X103152400Y-147163000D03*
D13*
X103152400Y-145963000D03*
D14*
X100452400Y-144963000D03*
X100452400Y-151963000D03*
D13*
X103152400Y-150963000D03*
%TD*%
D15*
%TO.C,LED1*%
X113588800Y-127397400D03*
X113588800Y-129447400D03*
%TD*%
D16*
%TO.C,D8*%
X104911000Y-127457200D03*
X102861000Y-127457200D03*
%TD*%
D17*
%TO.C,Q1*%
X111990900Y-138394400D03*
X111990900Y-140294400D03*
X113865900Y-139344400D03*
%TD*%
D18*
%TO.C,R11*%
X110032800Y-140667100D03*
X110032800Y-142492100D03*
%TD*%
D15*
%TO.C,D7*%
X115773200Y-150968600D03*
X115773200Y-153018600D03*
%TD*%
D19*
%TO.C,C13*%
X115824000Y-136399100D03*
X115824000Y-138124100D03*
%TD*%
D20*
%TO.C,R8*%
X113946300Y-156159200D03*
X115771300Y-156159200D03*
%TD*%
D21*
%TO.C,U1*%
X110059200Y-146952800D03*
X110559200Y-146952800D03*
X111059200Y-146952800D03*
X111559200Y-146952800D03*
X112059200Y-146952800D03*
X112559200Y-146952800D03*
X113059200Y-146952800D03*
D22*
X114009200Y-147902800D03*
X114009200Y-148402800D03*
X114009200Y-148902800D03*
X114009200Y-149402800D03*
X114009200Y-149902800D03*
X114009200Y-150402800D03*
X114009200Y-150902800D03*
D21*
X113059200Y-151852800D03*
X112559200Y-151852800D03*
X112059200Y-151852800D03*
X111559200Y-151852800D03*
X111059200Y-151852800D03*
X110559200Y-151852800D03*
X110059200Y-151852800D03*
D22*
X109109200Y-150902800D03*
X109109200Y-150402800D03*
X109109200Y-149902800D03*
X109109200Y-149402800D03*
X109109200Y-148902800D03*
X109109200Y-148402800D03*
X109109200Y-147902800D03*
D23*
X111559200Y-149402800D03*
X112679200Y-149402800D03*
X110439200Y-148282800D03*
X111559200Y-148282800D03*
X112679200Y-148282800D03*
X112679200Y-150522800D03*
X110439200Y-150522800D03*
X110439200Y-149402800D03*
X111559200Y-150522800D03*
%TD*%
D15*
%TO.C,LED2*%
X115671600Y-127397400D03*
X115671600Y-129447400D03*
%TD*%
D17*
%TO.C,Q2*%
X111990900Y-141899600D03*
X111990900Y-143799600D03*
X113865900Y-142849600D03*
%TD*%
D24*
%TO.C,R1*%
X108506900Y-153466800D03*
X106681900Y-153466800D03*
%TD*%
D25*
%TO.C,C14*%
X117449600Y-159155300D03*
X117449600Y-157430300D03*
%TD*%
D26*
%TO.C,D6*%
X115773200Y-149157800D03*
X115773200Y-147107800D03*
%TD*%
D27*
%TO.C,D1*%
X105714800Y-144646400D03*
X105714800Y-141286400D03*
%TD*%
D28*
%TO.C,U3*%
X102920000Y-112661000D03*
X102920000Y-114161000D03*
X102920000Y-115661000D03*
X102920000Y-117161000D03*
X102920000Y-118661000D03*
X102920000Y-120161000D03*
X102920000Y-121661000D03*
X102920000Y-123161000D03*
X102920000Y-124661000D03*
X120420000Y-124661000D03*
X120420000Y-123161000D03*
X120420000Y-121661000D03*
X120420000Y-120161000D03*
X120420000Y-118661000D03*
X120420000Y-117161000D03*
X120420000Y-115661000D03*
X120420000Y-114161000D03*
X120420000Y-112661000D03*
D29*
X111530000Y-119961000D03*
X113730000Y-119961000D03*
X113730000Y-118861000D03*
X111530000Y-118861000D03*
X113730000Y-117761000D03*
X112580000Y-119961000D03*
X112580000Y-117761000D03*
X111530000Y-117761000D03*
X112580000Y-118861000D03*
%TD*%
D30*
%TO.C,C4*%
X111809700Y-153466800D03*
X110084700Y-153466800D03*
%TD*%
D31*
%TO.C,D4*%
X105371200Y-135510400D03*
D32*
X107071200Y-135510400D03*
X107071200Y-132510400D03*
X105171200Y-132510400D03*
%TD*%
D31*
%TO.C,D5*%
X105371200Y-149683600D03*
D32*
X107071200Y-149683600D03*
X107071200Y-146683600D03*
X105171200Y-146683600D03*
%TD*%
D10*
%TO.C,J1*%
X100452400Y-130907200D03*
D11*
X100452400Y-134807200D03*
X100452400Y-132807200D03*
D10*
X100452400Y-136707200D03*
D12*
X103152400Y-135107200D03*
X103152400Y-134457200D03*
X103152400Y-133807200D03*
X103152400Y-133157200D03*
X103152400Y-132507200D03*
D13*
X103152400Y-136307200D03*
D14*
X100452400Y-130307200D03*
D13*
X103152400Y-131307200D03*
D14*
X100452400Y-137307200D03*
%TD*%
D24*
%TO.C,R2*%
X111910500Y-154990800D03*
X110085500Y-154990800D03*
%TD*%
D33*
%TO.C,R10*%
X110032800Y-139088500D03*
X110032800Y-137263500D03*
%TD*%
M02*
