%TF.GenerationSoftware,KiCad,Pcbnew,(6.0.8)*%
%TF.CreationDate,2023-01-13T13:27:28+01:00*%
%TF.ProjectId,NB-IoT_PCB_rev_1_1,4e422d49-6f54-45f5-9043-425f7265765f,rev?*%
%TF.SameCoordinates,Original*%
%TF.FileFunction,Drillmap*%
%TF.FilePolarity,Positive*%
%FSLAX45Y45*%
G04 Gerber Fmt 4.5, Leading zero omitted, Abs format (unit mm)*
G04 Created by KiCad (PCBNEW (6.0.8)) date 2023-01-13 13:27:28*
%MOMM*%
%LPD*%
G01*
G04 APERTURE LIST*
%ADD10C,0.150000*%
%ADD11C,0.200000*%
G04 APERTURE END LIST*
D10*
X12988380Y-11806000D02*
X12638380Y-11806000D01*
X12638380Y-11806000D02*
G75*
G03*
X12438380Y-12006000I0J-200000D01*
G01*
X12988380Y-10906000D02*
X12438380Y-10906000D01*
X13288380Y-11206000D02*
G75*
G03*
X12988380Y-10906000I-300000J0D01*
G01*
X13288380Y-11206000D02*
X13288380Y-11506000D01*
X12988380Y-11806000D02*
G75*
G03*
X13288380Y-11506000I0J300000D01*
G01*
X9345840Y-16610461D02*
G75*
G03*
X9045840Y-16910461I0J-300000D01*
G01*
X9345840Y-17510461D02*
X9895840Y-17510461D01*
X9045840Y-17210461D02*
X9045840Y-16910461D01*
X9345840Y-16610461D02*
X9695840Y-16610461D01*
X9045840Y-17210461D02*
G75*
G03*
X9345840Y-17510461I300000J0D01*
G01*
X9695840Y-16610461D02*
G75*
G03*
X9895840Y-16410461I0J200000D01*
G01*
X9045840Y-11505000D02*
G75*
G03*
X9345840Y-11805000I300000J0D01*
G01*
X9895840Y-10905000D02*
X9345840Y-10905000D01*
X9045840Y-11505000D02*
X9045840Y-11205000D01*
X9695840Y-11805000D02*
X9345840Y-11805000D01*
X9345840Y-10905000D02*
G75*
G03*
X9045840Y-11205000I0J-300000D01*
G01*
X9895840Y-12005000D02*
G75*
G03*
X9695840Y-11805000I-200000J0D01*
G01*
X12438380Y-16410461D02*
G75*
G03*
X12638380Y-16610461I200000J0D01*
G01*
X13288380Y-16910461D02*
X13288380Y-17210461D01*
X12988380Y-17510461D02*
G75*
G03*
X13288380Y-17210461I0J300000D01*
G01*
X13288380Y-16910461D02*
G75*
G03*
X12988380Y-16610461I-300000J0D01*
G01*
X12638380Y-16610461D02*
X12988380Y-16610461D01*
X12438380Y-17510461D02*
X12988380Y-17510461D01*
X9895840Y-12005000D02*
X9895840Y-16410461D01*
X12438380Y-12006000D02*
X12438380Y-16410461D01*
X12079000Y-11056000D02*
X12079000Y-11010000D01*
X10256000Y-11009000D02*
X10256000Y-11056000D01*
X10256000Y-11009000D02*
G75*
G03*
X10151000Y-10905000I-104500J-500D01*
G01*
X10151000Y-10905000D02*
X9895840Y-10905000D01*
X12438380Y-17510461D02*
X9895840Y-17510461D01*
X12183000Y-10906000D02*
X12438380Y-10906000D01*
X10359500Y-11160000D02*
X11975000Y-11160000D01*
X11975000Y-11160000D02*
G75*
G03*
X12079000Y-11056000I0J104000D01*
G01*
X10256000Y-11056000D02*
G75*
G03*
X10359500Y-11160000I103750J-250D01*
G01*
X12183000Y-10906000D02*
G75*
G03*
X12079000Y-11010000I0J-104000D01*
G01*
D11*
X9295959Y-17828437D02*
X9295959Y-17628437D01*
X9343578Y-17628437D01*
X9372150Y-17637961D01*
X9391197Y-17657009D01*
X9400721Y-17676056D01*
X9410245Y-17714151D01*
X9410245Y-17742723D01*
X9400721Y-17780818D01*
X9391197Y-17799866D01*
X9372150Y-17818913D01*
X9343578Y-17828437D01*
X9295959Y-17828437D01*
X9495959Y-17828437D02*
X9495959Y-17695104D01*
X9495959Y-17733199D02*
X9505483Y-17714151D01*
X9515007Y-17704628D01*
X9534054Y-17695104D01*
X9553102Y-17695104D01*
X9619769Y-17828437D02*
X9619769Y-17695104D01*
X9619769Y-17628437D02*
X9610245Y-17637961D01*
X9619769Y-17647485D01*
X9629292Y-17637961D01*
X9619769Y-17628437D01*
X9619769Y-17647485D01*
X9743578Y-17828437D02*
X9724530Y-17818913D01*
X9715007Y-17799866D01*
X9715007Y-17628437D01*
X9848340Y-17828437D02*
X9829292Y-17818913D01*
X9819769Y-17799866D01*
X9819769Y-17628437D01*
X10076911Y-17828437D02*
X10076911Y-17628437D01*
X10143578Y-17771294D01*
X10210245Y-17628437D01*
X10210245Y-17828437D01*
X10391197Y-17828437D02*
X10391197Y-17723675D01*
X10381673Y-17704628D01*
X10362626Y-17695104D01*
X10324530Y-17695104D01*
X10305483Y-17704628D01*
X10391197Y-17818913D02*
X10372150Y-17828437D01*
X10324530Y-17828437D01*
X10305483Y-17818913D01*
X10295959Y-17799866D01*
X10295959Y-17780818D01*
X10305483Y-17761770D01*
X10324530Y-17752247D01*
X10372150Y-17752247D01*
X10391197Y-17742723D01*
X10486435Y-17695104D02*
X10486435Y-17895104D01*
X10486435Y-17704628D02*
X10505483Y-17695104D01*
X10543578Y-17695104D01*
X10562626Y-17704628D01*
X10572150Y-17714151D01*
X10581673Y-17733199D01*
X10581673Y-17790342D01*
X10572150Y-17809389D01*
X10562626Y-17818913D01*
X10543578Y-17828437D01*
X10505483Y-17828437D01*
X10486435Y-17818913D01*
X10667388Y-17809389D02*
X10676911Y-17818913D01*
X10667388Y-17828437D01*
X10657864Y-17818913D01*
X10667388Y-17809389D01*
X10667388Y-17828437D01*
X10667388Y-17704628D02*
X10676911Y-17714151D01*
X10667388Y-17723675D01*
X10657864Y-17714151D01*
X10667388Y-17704628D01*
X10667388Y-17723675D01*
M02*
