M48
; DRILL file {KiCad (6.0.8)} date Fri Jan 13 13:27:27 2023
; FORMAT={-:-/ absolute / metric / decimal}
; #@! TF.CreationDate,2023-01-13T13:27:27+01:00
; #@! TF.GenerationSoftware,Kicad,Pcbnew,(6.0.8)
; #@! TF.FileFunction,Plated,1,4,PTH
FMAT,2
METRIC
; #@! TA.AperFunction,Plated,PTH,ViaDrill
T1C0.200
; #@! TA.AperFunction,Plated,PTH,ViaDrill
T2C0.300
; #@! TA.AperFunction,Plated,PTH,ViaDrill
T3C0.400
; #@! TA.AperFunction,Plated,PTH,ComponentDrill
T4C0.500
; #@! TA.AperFunction,Plated,PTH,ComponentDrill
T5C0.550
; #@! TA.AperFunction,Plated,PTH,ComponentDrill
T6C0.800
; #@! TA.AperFunction,Plated,PTH,ComponentDrill
T7C1.000
; #@! TA.AperFunction,Plated,PTH,ComponentDrill
T8C1.100
; #@! TA.AperFunction,Plated,PTH,ComponentDrill
T9C3.200
%
G90
G05
T1
X101.38Y-128.14
X105.054Y-167.437
X105.156Y-116.942
X105.969Y-127.457
X106.113Y-147.16
X106.629Y-152.552
X107.036Y-148.031
X107.721Y-122.809
X107.95Y-149.911
X108.001Y-148.336
X108.204Y-119.837
X109.22Y-131.521
X109.474Y-116.789
X109.8Y-114.05
X110.287Y-121.666
X110.287Y-123.088
X110.84Y-152.742
X110.998Y-156.566
X111.354Y-133.655
X111.709Y-136.804
X112.926Y-156.161
X113.589Y-130.81
X113.69Y-125.73
X114.4Y-114.5
X114.579Y-125.603
X114.96Y-143.967
X115.367Y-117.196
X115.672Y-130.81
X116.23Y-120.193
X116.23Y-133.553
X116.434Y-122.174
X116.688Y-124.308
X116.942Y-147.168
X117.043Y-149.352
X117.297Y-138.532
X117.348Y-127.711
X118.567Y-140.005
X118.77Y-120.193
X118.872Y-113.132
X118.872Y-114.148
X118.923Y-142.799
X118.974Y-124.257
X119.253Y-121.488
X119.278Y-123.139
X119.38Y-117.196
X119.786Y-143.307
X120.904Y-171.856
X122.784Y-132.74
X122.784Y-140.462
X122.834Y-148.539
T2
X105.842Y-151.511
X108.153Y-150.978
T3
X104.038Y-112.674
X105.156Y-130.912
X105.766Y-137.668
X106.782Y-140.564
X108.407Y-137.617
X114.402Y-133.502
X115.265Y-140.614
T4
X92.2Y-113.55
X92.2Y-170.6
X92.903Y-111.853
X92.903Y-115.247
X92.903Y-168.903
X92.903Y-172.297
X94.6Y-111.15
X94.6Y-115.95
X94.6Y-168.2
X94.6Y-173.0
X96.297Y-111.853
X96.297Y-115.247
X96.297Y-168.903
X96.297Y-172.297
X97.0Y-113.55
X97.0Y-170.6
X126.2Y-113.55
X126.2Y-170.6
X126.903Y-111.853
X126.903Y-115.247
X126.903Y-168.903
X126.903Y-172.297
X128.6Y-111.15
X128.6Y-115.95
X128.6Y-168.2
X128.6Y-173.0
X130.297Y-111.853
X130.297Y-115.247
X130.297Y-168.903
X130.297Y-172.297
X131.0Y-113.55
X131.0Y-170.6
T6
X101.803Y-140.128
X101.803Y-142.128
X108.57Y-129.184
X110.57Y-129.184
T7
X100.24Y-110.334
X100.24Y-112.874
X100.24Y-115.414
X100.24Y-117.954
X100.24Y-120.494
X100.24Y-123.034
X100.24Y-125.574
X100.24Y-156.054
X100.24Y-158.594
X100.24Y-161.134
X100.24Y-163.674
X100.24Y-166.214
X100.24Y-168.754
X100.24Y-171.294
X100.24Y-173.834
X123.1Y-110.334
X123.1Y-112.874
X123.1Y-115.414
X123.1Y-117.954
X123.1Y-120.494
X123.1Y-123.034
X123.1Y-125.574
X123.1Y-156.054
X123.1Y-158.594
X123.1Y-161.134
X123.1Y-163.674
X123.1Y-166.214
X123.1Y-168.754
X123.1Y-171.294
X123.1Y-173.834
T8
X118.278Y-129.494
X118.278Y-135.994
X118.298Y-145.34
X118.298Y-151.84
X122.778Y-129.494
X122.778Y-135.994
X122.798Y-145.34
X122.798Y-151.84
T9
X94.6Y-113.55
X94.6Y-170.6
X128.6Y-113.55
X128.6Y-170.6
T4
X100.777Y-130.307G85X100.127Y-130.307
G05
X100.777Y-137.307G85X100.127Y-137.307
G05
X100.777Y-144.963G85X100.127Y-144.963
G05
X100.777Y-151.963G85X100.127Y-151.963
G05
T5
X103.152Y-131.157G85X103.152Y-131.457
G05
X103.152Y-136.157G85X103.152Y-136.457
G05
X103.152Y-145.813G85X103.152Y-146.113
G05
X103.152Y-150.813G85X103.152Y-151.113
G05
T0
M30
