%TF.GenerationSoftware,KiCad,Pcbnew,(6.0.8)*%
%TF.CreationDate,2023-01-13T13:27:25+01:00*%
%TF.ProjectId,NB-IoT_PCB_rev_1_1,4e422d49-6f54-45f5-9043-425f7265765f,rev?*%
%TF.SameCoordinates,Original*%
%TF.FileFunction,Paste,Bot*%
%TF.FilePolarity,Positive*%
%FSLAX46Y46*%
G04 Gerber Fmt 4.6, Leading zero omitted, Abs format (unit mm)*
G04 Created by KiCad (PCBNEW (6.0.8)) date 2023-01-13 13:27:25*
%MOMM*%
%LPD*%
G01*
G04 APERTURE LIST*
G04 Aperture macros list*
%AMRoundRect*
0 Rectangle with rounded corners*
0 $1 Rounding radius*
0 $2 $3 $4 $5 $6 $7 $8 $9 X,Y pos of 4 corners*
0 Add a 4 corners polygon primitive as box body*
4,1,4,$2,$3,$4,$5,$6,$7,$8,$9,$2,$3,0*
0 Add four circle primitives for the rounded corners*
1,1,$1+$1,$2,$3*
1,1,$1+$1,$4,$5*
1,1,$1+$1,$6,$7*
1,1,$1+$1,$8,$9*
0 Add four rect primitives between the rounded corners*
20,1,$1+$1,$2,$3,$4,$5,0*
20,1,$1+$1,$4,$5,$6,$7,0*
20,1,$1+$1,$6,$7,$8,$9,0*
20,1,$1+$1,$8,$9,$2,$3,0*%
G04 Aperture macros list end*
%ADD10RoundRect,0.237500X0.250000X0.237500X-0.250000X0.237500X-0.250000X-0.237500X0.250000X-0.237500X0*%
%ADD11RoundRect,0.237500X-0.237500X0.250000X-0.237500X-0.250000X0.237500X-0.250000X0.237500X0.250000X0*%
%ADD12RoundRect,0.237500X-0.300000X-0.237500X0.300000X-0.237500X0.300000X0.237500X-0.300000X0.237500X0*%
%ADD13R,1.500000X2.000000*%
%ADD14R,3.800000X2.000000*%
%ADD15RoundRect,0.237500X-0.237500X0.300000X-0.237500X-0.300000X0.237500X-0.300000X0.237500X0.300000X0*%
%ADD16R,1.780000X3.500000*%
%ADD17RoundRect,0.237500X0.237500X-0.250000X0.237500X0.250000X-0.237500X0.250000X-0.237500X-0.250000X0*%
%ADD18RoundRect,0.250000X0.650000X-0.412500X0.650000X0.412500X-0.650000X0.412500X-0.650000X-0.412500X0*%
%ADD19RoundRect,0.250000X-1.100000X0.412500X-1.100000X-0.412500X1.100000X-0.412500X1.100000X0.412500X0*%
%ADD20R,1.300000X1.700000*%
%ADD21R,0.730000X1.210000*%
%ADD22RoundRect,0.250000X-0.475000X0.337500X-0.475000X-0.337500X0.475000X-0.337500X0.475000X0.337500X0*%
%ADD23RoundRect,0.250000X-0.337500X-0.475000X0.337500X-0.475000X0.337500X0.475000X-0.337500X0.475000X0*%
G04 APERTURE END LIST*
D10*
%TO.C,R16*%
X110937500Y-114050000D03*
X112762500Y-114050000D03*
%TD*%
D11*
%TO.C,R15*%
X111455200Y-121261500D03*
X111455200Y-123086500D03*
%TD*%
D12*
%TO.C,C6*%
X106892500Y-118220000D03*
X105167500Y-118220000D03*
%TD*%
D11*
%TO.C,R3*%
X110998000Y-153468700D03*
X110998000Y-155293700D03*
%TD*%
D13*
%TO.C,U2*%
X116701600Y-142240400D03*
X114401600Y-142240400D03*
D14*
X114401600Y-135940400D03*
D13*
X112101600Y-142240400D03*
%TD*%
D15*
%TO.C,C2*%
X109220000Y-149607100D03*
X109220000Y-151332100D03*
%TD*%
D16*
%TO.C,F1*%
X104319000Y-140309600D03*
X109549000Y-140309600D03*
%TD*%
D10*
%TO.C,R5*%
X118260500Y-121208800D03*
X116435500Y-121208800D03*
%TD*%
D17*
%TO.C,R7*%
X117957600Y-149350100D03*
X117957600Y-147525100D03*
%TD*%
D11*
%TO.C,R13*%
X113030000Y-121261500D03*
X113030000Y-123086500D03*
%TD*%
D18*
%TO.C,C9*%
X107035600Y-116116500D03*
X107035600Y-112991500D03*
%TD*%
D10*
%TO.C,R12*%
X104544500Y-127457200D03*
X102719500Y-127457200D03*
%TD*%
%TO.C,R6*%
X118463700Y-117195600D03*
X116638700Y-117195600D03*
%TD*%
D12*
%TO.C,C8*%
X111710300Y-144322800D03*
X113435300Y-144322800D03*
%TD*%
D10*
%TO.C,R14*%
X112748700Y-115646200D03*
X110923700Y-115646200D03*
%TD*%
D19*
%TO.C,C1*%
X111556800Y-148094300D03*
X111556800Y-151219300D03*
%TD*%
D10*
%TO.C,R4*%
X118260500Y-123190000D03*
X116435500Y-123190000D03*
%TD*%
D20*
%TO.C,D3*%
X106403200Y-145084800D03*
X109903200Y-145084800D03*
%TD*%
D21*
%TO.C,D2*%
X105156000Y-132264400D03*
X105156000Y-135624400D03*
%TD*%
D15*
%TO.C,C10*%
X105054400Y-112878700D03*
X105054400Y-114603700D03*
%TD*%
%TO.C,C11*%
X110185200Y-134875100D03*
X110185200Y-136600100D03*
%TD*%
D22*
%TO.C,C12*%
X108407200Y-134446100D03*
X108407200Y-136521100D03*
%TD*%
D10*
%TO.C,R9*%
X105159050Y-119840000D03*
X106984050Y-119840000D03*
%TD*%
D23*
%TO.C,C7*%
X111789300Y-146100800D03*
X113864300Y-146100800D03*
%TD*%
M02*
