%TF.GenerationSoftware,KiCad,Pcbnew,(6.0.8)*%
%TF.CreationDate,2023-01-13T13:27:25+01:00*%
%TF.ProjectId,NB-IoT_PCB_rev_1_1,4e422d49-6f54-45f5-9043-425f7265765f,rev?*%
%TF.SameCoordinates,Original*%
%TF.FileFunction,Soldermask,Top*%
%TF.FilePolarity,Negative*%
%FSLAX46Y46*%
G04 Gerber Fmt 4.6, Leading zero omitted, Abs format (unit mm)*
G04 Created by KiCad (PCBNEW (6.0.8)) date 2023-01-13 13:27:25*
%MOMM*%
%LPD*%
G01*
G04 APERTURE LIST*
G04 Aperture macros list*
%AMRoundRect*
0 Rectangle with rounded corners*
0 $1 Rounding radius*
0 $2 $3 $4 $5 $6 $7 $8 $9 X,Y pos of 4 corners*
0 Add a 4 corners polygon primitive as box body*
4,1,4,$2,$3,$4,$5,$6,$7,$8,$9,$2,$3,0*
0 Add four circle primitives for the rounded corners*
1,1,$1+$1,$2,$3*
1,1,$1+$1,$4,$5*
1,1,$1+$1,$6,$7*
1,1,$1+$1,$8,$9*
0 Add four rect primitives between the rounded corners*
20,1,$1+$1,$2,$3,$4,$5,0*
20,1,$1+$1,$4,$5,$6,$7,0*
20,1,$1+$1,$6,$7,$8,$9,0*
20,1,$1+$1,$8,$9,$2,$3,0*%
G04 Aperture macros list end*
%ADD10C,0.800000*%
%ADD11C,6.400000*%
%ADD12R,1.700000X1.700000*%
%ADD13O,1.700000X1.700000*%
%ADD14O,0.950000X1.250000*%
%ADD15R,1.550000X1.200000*%
%ADD16R,1.550000X1.500000*%
%ADD17O,1.550000X0.890000*%
%ADD18R,1.350000X0.400000*%
%ADD19R,1.600000X1.600000*%
%ADD20C,1.600000*%
%ADD21RoundRect,0.250000X-0.450000X0.325000X-0.450000X-0.325000X0.450000X-0.325000X0.450000X0.325000X0*%
%ADD22RoundRect,0.250000X0.325000X0.450000X-0.325000X0.450000X-0.325000X-0.450000X0.325000X-0.450000X0*%
%ADD23RoundRect,0.150000X-0.587500X-0.150000X0.587500X-0.150000X0.587500X0.150000X-0.587500X0.150000X0*%
%ADD24RoundRect,0.237500X-0.237500X0.250000X-0.237500X-0.250000X0.237500X-0.250000X0.237500X0.250000X0*%
%ADD25RoundRect,0.237500X-0.237500X0.300000X-0.237500X-0.300000X0.237500X-0.300000X0.237500X0.300000X0*%
%ADD26RoundRect,0.237500X-0.250000X-0.237500X0.250000X-0.237500X0.250000X0.237500X-0.250000X0.237500X0*%
%ADD27R,3.350000X3.350000*%
%ADD28RoundRect,0.062500X-0.062500X-0.337500X0.062500X-0.337500X0.062500X0.337500X-0.062500X0.337500X0*%
%ADD29RoundRect,0.062500X-0.337500X-0.062500X0.337500X-0.062500X0.337500X0.062500X-0.337500X0.062500X0*%
%ADD30RoundRect,0.237500X0.250000X0.237500X-0.250000X0.237500X-0.250000X-0.237500X0.250000X-0.237500X0*%
%ADD31RoundRect,0.237500X0.237500X-0.300000X0.237500X0.300000X-0.237500X0.300000X-0.237500X-0.300000X0*%
%ADD32RoundRect,0.250000X0.450000X-0.325000X0.450000X0.325000X-0.450000X0.325000X-0.450000X-0.325000X0*%
%ADD33R,0.730000X1.210000*%
%ADD34C,2.000000*%
%ADD35R,1.500000X0.900000*%
%ADD36R,0.700000X0.700000*%
%ADD37RoundRect,0.237500X0.300000X0.237500X-0.300000X0.237500X-0.300000X-0.237500X0.300000X-0.237500X0*%
%ADD38R,1.000000X1.700000*%
%ADD39R,0.600000X1.700000*%
%ADD40RoundRect,0.237500X0.237500X-0.250000X0.237500X0.250000X-0.237500X0.250000X-0.237500X-0.250000X0*%
G04 APERTURE END LIST*
D10*
%TO.C,H4*%
X128600000Y-111150000D03*
X130297056Y-115247056D03*
X130297056Y-111852944D03*
X131000000Y-113550000D03*
D11*
X128600000Y-113550000D03*
D10*
X128600000Y-115950000D03*
X126902944Y-111852944D03*
X126902944Y-115247056D03*
X126200000Y-113550000D03*
%TD*%
%TO.C,H3*%
X92200000Y-113550000D03*
X92902944Y-115247056D03*
X92902944Y-111852944D03*
X94600000Y-115950000D03*
D11*
X94600000Y-113550000D03*
D10*
X97000000Y-113550000D03*
X96297056Y-111852944D03*
X96297056Y-115247056D03*
X94600000Y-111150000D03*
%TD*%
%TO.C,H2*%
X94600000Y-168200000D03*
X96297056Y-172297056D03*
X96297056Y-168902944D03*
X97000000Y-170600000D03*
D11*
X94600000Y-170600000D03*
D10*
X94600000Y-173000000D03*
X92902944Y-168902944D03*
X92902944Y-172297056D03*
X92200000Y-170600000D03*
%TD*%
%TO.C,H1*%
X126200000Y-170600000D03*
X126902944Y-172297056D03*
X126902944Y-168902944D03*
X128600000Y-173000000D03*
D11*
X128600000Y-170600000D03*
D10*
X131000000Y-170600000D03*
X130297056Y-168902944D03*
X130297056Y-172297056D03*
X128600000Y-168200000D03*
%TD*%
D12*
%TO.C,J8*%
X100240000Y-110334000D03*
D13*
X100240000Y-112874000D03*
X100240000Y-115414000D03*
X100240000Y-117954000D03*
X100240000Y-120494000D03*
X100240000Y-123034000D03*
X100240000Y-125574000D03*
%TD*%
D12*
%TO.C,J7*%
X123100000Y-110334000D03*
D13*
X123100000Y-112874000D03*
X123100000Y-115414000D03*
X123100000Y-117954000D03*
X123100000Y-120494000D03*
X123100000Y-123034000D03*
X123100000Y-125574000D03*
%TD*%
D14*
%TO.C,J2*%
X103152400Y-150963000D03*
D15*
X100452400Y-151363000D03*
D16*
X100452400Y-149463000D03*
D17*
X100452400Y-144963000D03*
D15*
X100452400Y-145563000D03*
D17*
X100452400Y-151963000D03*
D14*
X103152400Y-145963000D03*
D16*
X100452400Y-147463000D03*
D18*
X103152400Y-149763000D03*
X103152400Y-149113000D03*
X103152400Y-148463000D03*
X103152400Y-147813000D03*
X103152400Y-147163000D03*
%TD*%
D19*
%TO.C,C5*%
X108569688Y-129184400D03*
D20*
X110569688Y-129184400D03*
%TD*%
D21*
%TO.C,LED1*%
X113588800Y-127397400D03*
X113588800Y-129447400D03*
%TD*%
D22*
%TO.C,D8*%
X104911000Y-127457200D03*
X102861000Y-127457200D03*
%TD*%
D23*
%TO.C,Q1*%
X111990900Y-138394400D03*
X111990900Y-140294400D03*
X113865900Y-139344400D03*
%TD*%
D24*
%TO.C,R11*%
X110032800Y-140667100D03*
X110032800Y-142492100D03*
%TD*%
D12*
%TO.C,J3*%
X123100000Y-173834000D03*
D13*
X123100000Y-171294000D03*
X123100000Y-168754000D03*
X123100000Y-166214000D03*
X123100000Y-163674000D03*
X123100000Y-161134000D03*
X123100000Y-158594000D03*
X123100000Y-156054000D03*
%TD*%
D21*
%TO.C,D7*%
X115773200Y-150968600D03*
X115773200Y-153018600D03*
%TD*%
D25*
%TO.C,C13*%
X115824000Y-136399100D03*
X115824000Y-138124100D03*
%TD*%
D26*
%TO.C,R8*%
X113946300Y-156159200D03*
X115771300Y-156159200D03*
%TD*%
D27*
%TO.C,U1*%
X111559200Y-149402800D03*
D28*
X110059200Y-146952800D03*
X110559200Y-146952800D03*
X111059200Y-146952800D03*
X111559200Y-146952800D03*
X112059200Y-146952800D03*
X112559200Y-146952800D03*
X113059200Y-146952800D03*
D29*
X114009200Y-147902800D03*
X114009200Y-148402800D03*
X114009200Y-148902800D03*
X114009200Y-149402800D03*
X114009200Y-149902800D03*
X114009200Y-150402800D03*
X114009200Y-150902800D03*
D28*
X113059200Y-151852800D03*
X112559200Y-151852800D03*
X112059200Y-151852800D03*
X111559200Y-151852800D03*
X111059200Y-151852800D03*
X110559200Y-151852800D03*
X110059200Y-151852800D03*
D29*
X109109200Y-150902800D03*
X109109200Y-150402800D03*
X109109200Y-149902800D03*
X109109200Y-149402800D03*
X109109200Y-148902800D03*
X109109200Y-148402800D03*
X109109200Y-147902800D03*
%TD*%
D21*
%TO.C,LED2*%
X115671600Y-127397400D03*
X115671600Y-129447400D03*
%TD*%
D23*
%TO.C,Q2*%
X111990900Y-141899600D03*
X111990900Y-143799600D03*
X113865900Y-142849600D03*
%TD*%
D30*
%TO.C,R1*%
X108506900Y-153466800D03*
X106681900Y-153466800D03*
%TD*%
D31*
%TO.C,C14*%
X117449600Y-159155300D03*
X117449600Y-157430300D03*
%TD*%
D32*
%TO.C,D6*%
X115773200Y-149157800D03*
X115773200Y-147107800D03*
%TD*%
D33*
%TO.C,D1*%
X105714800Y-144646400D03*
X105714800Y-141286400D03*
%TD*%
D19*
%TO.C,C3*%
X101803200Y-142128313D03*
D20*
X101803200Y-140128313D03*
%TD*%
D34*
%TO.C,RST1*%
X122777600Y-135994000D03*
X122777600Y-129494000D03*
X118277600Y-129494000D03*
X118277600Y-135994000D03*
%TD*%
D35*
%TO.C,U3*%
X102920000Y-112661000D03*
X102920000Y-114161000D03*
X102920000Y-115661000D03*
X102920000Y-117161000D03*
X102920000Y-118661000D03*
X102920000Y-120161000D03*
X102920000Y-121661000D03*
X102920000Y-123161000D03*
X102920000Y-124661000D03*
X120420000Y-124661000D03*
X120420000Y-123161000D03*
X120420000Y-121661000D03*
X120420000Y-120161000D03*
X120420000Y-118661000D03*
X120420000Y-117161000D03*
X120420000Y-115661000D03*
X120420000Y-114161000D03*
X120420000Y-112661000D03*
D36*
X111530000Y-119961000D03*
X113730000Y-119961000D03*
X113730000Y-118861000D03*
X111530000Y-118861000D03*
X113730000Y-117761000D03*
X112580000Y-119961000D03*
X112580000Y-117761000D03*
X111530000Y-117761000D03*
X112580000Y-118861000D03*
%TD*%
D34*
%TO.C,BOOT1*%
X122798400Y-145340000D03*
X122798400Y-151840000D03*
X118298400Y-151840000D03*
X118298400Y-145340000D03*
%TD*%
D12*
%TO.C,J6*%
X100240000Y-173834000D03*
D13*
X100240000Y-171294000D03*
X100240000Y-168754000D03*
X100240000Y-166214000D03*
X100240000Y-163674000D03*
X100240000Y-161134000D03*
X100240000Y-158594000D03*
X100240000Y-156054000D03*
%TD*%
D37*
%TO.C,C4*%
X111809700Y-153466800D03*
X110084700Y-153466800D03*
%TD*%
D38*
%TO.C,D4*%
X105371200Y-135510400D03*
D39*
X107071200Y-135510400D03*
X107071200Y-132510400D03*
X105171200Y-132510400D03*
%TD*%
D38*
%TO.C,D5*%
X105371200Y-149683600D03*
D39*
X107071200Y-149683600D03*
X107071200Y-146683600D03*
X105171200Y-146683600D03*
%TD*%
D14*
%TO.C,J1*%
X103152400Y-131307200D03*
D15*
X100452400Y-130907200D03*
D16*
X100452400Y-134807200D03*
D14*
X103152400Y-136307200D03*
D17*
X100452400Y-137307200D03*
D16*
X100452400Y-132807200D03*
D17*
X100452400Y-130307200D03*
D15*
X100452400Y-136707200D03*
D18*
X103152400Y-135107200D03*
X103152400Y-134457200D03*
X103152400Y-133807200D03*
X103152400Y-133157200D03*
X103152400Y-132507200D03*
%TD*%
D30*
%TO.C,R2*%
X111910500Y-154990800D03*
X110085500Y-154990800D03*
%TD*%
D40*
%TO.C,R10*%
X110032800Y-139088500D03*
X110032800Y-137263500D03*
%TD*%
G36*
X116020121Y-168422002D02*
G01*
X116066614Y-168475658D01*
X116078000Y-168528000D01*
X116078000Y-170689000D01*
X116057998Y-170757121D01*
X116004342Y-170803614D01*
X115952000Y-170815000D01*
X107441000Y-170815000D01*
X107372879Y-170794998D01*
X107326386Y-170741342D01*
X107315000Y-170689000D01*
X107315000Y-168528000D01*
X107335002Y-168459879D01*
X107388658Y-168413386D01*
X107441000Y-168402000D01*
X115952000Y-168402000D01*
X116020121Y-168422002D01*
G37*
M02*
